<mxfile host="app.diagrams.net" modified="2022-09-30T15:54:04.218Z" agent="5.0 (Macintosh)" etag="6y_mhYNhZT3LU9-rpq7E" version="20.4.0" type="github">
  <diagram id="fVedEmRO5uLyhMAxF2ie" name="Page-1">
    <mxGraphModel dx="1780" dy="1070" grid="1" gridSize="10" guides="1" tooltips="1" connect="1" arrows="1" fold="1" page="1" pageScale="1" pageWidth="850" pageHeight="1100" math="0" shadow="0">
      <root>
        <mxCell id="0" />
        <mxCell id="1" parent="0" />
        <mxCell id="olI5NsrXjDAWR4fgo8TI-3" value="" style="edgeStyle=orthogonalEdgeStyle;rounded=0;orthogonalLoop=1;jettySize=auto;html=1;" edge="1" parent="1" source="olI5NsrXjDAWR4fgo8TI-1" target="olI5NsrXjDAWR4fgo8TI-2">
          <mxGeometry relative="1" as="geometry" />
        </mxCell>
        <mxCell id="olI5NsrXjDAWR4fgo8TI-12" value="" style="edgeStyle=orthogonalEdgeStyle;rounded=0;orthogonalLoop=1;jettySize=auto;html=1;entryX=0;entryY=0.5;entryDx=0;entryDy=0;" edge="1" parent="1" source="olI5NsrXjDAWR4fgo8TI-1" target="olI5NsrXjDAWR4fgo8TI-11">
          <mxGeometry relative="1" as="geometry">
            <Array as="points">
              <mxPoint x="330" y="120" />
              <mxPoint x="330" y="290" />
              <mxPoint x="425" y="290" />
            </Array>
          </mxGeometry>
        </mxCell>
        <mxCell id="olI5NsrXjDAWR4fgo8TI-1" value="&amp;nbsp;Can i install Azure Stack Hub on OCI BareMetal" style="rounded=0;whiteSpace=wrap;html=1;" vertex="1" parent="1">
          <mxGeometry x="150" y="90" width="120" height="60" as="geometry" />
        </mxCell>
        <mxCell id="olI5NsrXjDAWR4fgo8TI-5" value="" style="edgeStyle=orthogonalEdgeStyle;rounded=0;orthogonalLoop=1;jettySize=auto;html=1;" edge="1" parent="1" source="olI5NsrXjDAWR4fgo8TI-2" target="olI5NsrXjDAWR4fgo8TI-4">
          <mxGeometry relative="1" as="geometry" />
        </mxCell>
        <mxCell id="olI5NsrXjDAWR4fgo8TI-2" value="Has someone done this before in cmcafee&#39;s org" style="rhombus;whiteSpace=wrap;html=1;rounded=0;" vertex="1" parent="1">
          <mxGeometry x="380" y="80" width="190" height="80" as="geometry" />
        </mxCell>
        <mxCell id="olI5NsrXjDAWR4fgo8TI-8" value="" style="edgeStyle=orthogonalEdgeStyle;rounded=0;orthogonalLoop=1;jettySize=auto;html=1;" edge="1" parent="1" source="olI5NsrXjDAWR4fgo8TI-4" target="olI5NsrXjDAWR4fgo8TI-7">
          <mxGeometry relative="1" as="geometry" />
        </mxCell>
        <mxCell id="olI5NsrXjDAWR4fgo8TI-4" value="Expand your search" style="whiteSpace=wrap;html=1;rounded=0;" vertex="1" parent="1">
          <mxGeometry x="685" y="90" width="120" height="60" as="geometry" />
        </mxCell>
        <mxCell id="olI5NsrXjDAWR4fgo8TI-6" value="No" style="text;html=1;align=center;verticalAlign=middle;resizable=0;points=[];autosize=1;strokeColor=none;fillColor=none;" vertex="1" parent="1">
          <mxGeometry x="580" y="95" width="40" height="30" as="geometry" />
        </mxCell>
        <mxCell id="olI5NsrXjDAWR4fgo8TI-10" value="" style="edgeStyle=orthogonalEdgeStyle;rounded=0;orthogonalLoop=1;jettySize=auto;html=1;" edge="1" parent="1" source="olI5NsrXjDAWR4fgo8TI-7" target="olI5NsrXjDAWR4fgo8TI-9">
          <mxGeometry relative="1" as="geometry" />
        </mxCell>
        <mxCell id="olI5NsrXjDAWR4fgo8TI-7" value="has someone done in OCI-Azure Interconnect Team" style="rhombus;whiteSpace=wrap;html=1;rounded=0;" vertex="1" parent="1">
          <mxGeometry x="905" y="80" width="165" height="70" as="geometry" />
        </mxCell>
        <mxCell id="olI5NsrXjDAWR4fgo8TI-23" value="" style="edgeStyle=orthogonalEdgeStyle;rounded=0;orthogonalLoop=1;jettySize=auto;html=1;" edge="1" parent="1" source="olI5NsrXjDAWR4fgo8TI-9" target="olI5NsrXjDAWR4fgo8TI-22">
          <mxGeometry relative="1" as="geometry" />
        </mxCell>
        <mxCell id="olI5NsrXjDAWR4fgo8TI-9" value="Can i cast a wider net within Oracle?" style="rhombus;whiteSpace=wrap;html=1;rounded=0;" vertex="1" parent="1">
          <mxGeometry x="1170" y="65" width="250" height="100" as="geometry" />
        </mxCell>
        <mxCell id="olI5NsrXjDAWR4fgo8TI-17" value="" style="edgeStyle=orthogonalEdgeStyle;rounded=0;orthogonalLoop=1;jettySize=auto;html=1;entryX=0;entryY=0.5;entryDx=0;entryDy=0;" edge="1" parent="1" source="olI5NsrXjDAWR4fgo8TI-11" target="olI5NsrXjDAWR4fgo8TI-16">
          <mxGeometry relative="1" as="geometry">
            <mxPoint x="890" y="290" as="targetPoint" />
          </mxGeometry>
        </mxCell>
        <mxCell id="olI5NsrXjDAWR4fgo8TI-18" style="edgeStyle=orthogonalEdgeStyle;rounded=0;orthogonalLoop=1;jettySize=auto;html=1;exitX=1;exitY=0.5;exitDx=0;exitDy=0;entryX=0.007;entryY=0.344;entryDx=0;entryDy=0;entryPerimeter=0;" edge="1" parent="1" source="olI5NsrXjDAWR4fgo8TI-11" target="olI5NsrXjDAWR4fgo8TI-19">
          <mxGeometry relative="1" as="geometry">
            <mxPoint x="975" y="420" as="targetPoint" />
            <mxPoint x="805" y="280" as="sourcePoint" />
            <Array as="points">
              <mxPoint x="783" y="420" />
            </Array>
          </mxGeometry>
        </mxCell>
        <mxCell id="olI5NsrXjDAWR4fgo8TI-24" style="edgeStyle=orthogonalEdgeStyle;rounded=0;orthogonalLoop=1;jettySize=auto;html=1;entryX=0;entryY=0.333;entryDx=0;entryDy=0;entryPerimeter=0;" edge="1" parent="1" source="olI5NsrXjDAWR4fgo8TI-11" target="olI5NsrXjDAWR4fgo8TI-44">
          <mxGeometry relative="1" as="geometry">
            <mxPoint x="936.0799999999999" y="654.0799999999999" as="targetPoint" />
            <Array as="points">
              <mxPoint x="750" y="630" />
            </Array>
          </mxGeometry>
        </mxCell>
        <mxCell id="olI5NsrXjDAWR4fgo8TI-27" style="edgeStyle=orthogonalEdgeStyle;rounded=0;orthogonalLoop=1;jettySize=auto;html=1;" edge="1" parent="1" source="olI5NsrXjDAWR4fgo8TI-11">
          <mxGeometry relative="1" as="geometry">
            <mxPoint x="616" y="720" as="targetPoint" />
            <Array as="points">
              <mxPoint x="330" y="290" />
              <mxPoint x="330" y="555" />
              <mxPoint x="616" y="555" />
            </Array>
          </mxGeometry>
        </mxCell>
        <mxCell id="olI5NsrXjDAWR4fgo8TI-32" style="edgeStyle=orthogonalEdgeStyle;rounded=0;orthogonalLoop=1;jettySize=auto;html=1;" edge="1" parent="1" source="olI5NsrXjDAWR4fgo8TI-11">
          <mxGeometry relative="1" as="geometry">
            <mxPoint x="1070" y="850" as="targetPoint" />
            <Array as="points">
              <mxPoint x="810" y="290" />
              <mxPoint x="810" y="820" />
              <mxPoint x="930" y="820" />
            </Array>
          </mxGeometry>
        </mxCell>
        <mxCell id="olI5NsrXjDAWR4fgo8TI-11" value="Can i get the Azure Stack hub software and check pre-requisites " style="rhombus;whiteSpace=wrap;html=1;rounded=0;" vertex="1" parent="1">
          <mxGeometry x="450" y="190" width="332.5" height="200" as="geometry" />
        </mxCell>
        <mxCell id="olI5NsrXjDAWR4fgo8TI-50" value="" style="edgeStyle=orthogonalEdgeStyle;rounded=0;orthogonalLoop=1;jettySize=auto;html=1;" edge="1" parent="1" source="olI5NsrXjDAWR4fgo8TI-16" target="olI5NsrXjDAWR4fgo8TI-49">
          <mxGeometry relative="1" as="geometry" />
        </mxCell>
        <mxCell id="olI5NsrXjDAWR4fgo8TI-16" value="Not able to ascertain, due to the lack of documentation" style="whiteSpace=wrap;html=1;rounded=0;" vertex="1" parent="1">
          <mxGeometry x="968.75" y="260" width="120" height="60" as="geometry" />
        </mxCell>
        <mxCell id="olI5NsrXjDAWR4fgo8TI-21" value="" style="edgeStyle=orthogonalEdgeStyle;rounded=0;orthogonalLoop=1;jettySize=auto;html=1;" edge="1" parent="1" source="olI5NsrXjDAWR4fgo8TI-19" target="olI5NsrXjDAWR4fgo8TI-20">
          <mxGeometry relative="1" as="geometry" />
        </mxCell>
        <mxCell id="olI5NsrXjDAWR4fgo8TI-19" value="&lt;div&gt;I can get the pre-reqs for Azure Stack Development Kit &lt;br&gt;&lt;/div&gt;&lt;div&gt;&lt;br&gt;&lt;/div&gt;" style="rounded=0;whiteSpace=wrap;html=1;" vertex="1" parent="1">
          <mxGeometry x="968.75" y="390" width="181" height="90" as="geometry" />
        </mxCell>
        <mxCell id="olI5NsrXjDAWR4fgo8TI-52" value="" style="edgeStyle=orthogonalEdgeStyle;rounded=0;orthogonalLoop=1;jettySize=auto;html=1;" edge="1" parent="1" source="olI5NsrXjDAWR4fgo8TI-20" target="olI5NsrXjDAWR4fgo8TI-51">
          <mxGeometry relative="1" as="geometry" />
        </mxCell>
        <mxCell id="olI5NsrXjDAWR4fgo8TI-20" value="&lt;div&gt;This is not of great use , since this is not the MS recommended for production workloads&lt;br&gt;&lt;/div&gt;&lt;div&gt;&lt;br&gt;&lt;/div&gt;" style="rounded=0;whiteSpace=wrap;html=1;" vertex="1" parent="1">
          <mxGeometry x="1230" y="390" width="181" height="90" as="geometry" />
        </mxCell>
        <mxCell id="olI5NsrXjDAWR4fgo8TI-22" value="Possible, but not sure&amp;nbsp; if there will be ROI" style="whiteSpace=wrap;html=1;rounded=0;" vertex="1" parent="1">
          <mxGeometry x="1565" y="85" width="120" height="60" as="geometry" />
        </mxCell>
        <mxCell id="olI5NsrXjDAWR4fgo8TI-29" style="edgeStyle=orthogonalEdgeStyle;rounded=0;orthogonalLoop=1;jettySize=auto;html=1;" edge="1" parent="1" source="olI5NsrXjDAWR4fgo8TI-28">
          <mxGeometry relative="1" as="geometry">
            <mxPoint x="616.3000000000002" y="980" as="targetPoint" />
          </mxGeometry>
        </mxCell>
        <mxCell id="olI5NsrXjDAWR4fgo8TI-28" value="Why is Azure Stack Hub the only option ? &lt;br&gt;Is Azure Arc an option" style="rhombus;whiteSpace=wrap;html=1;" vertex="1" parent="1">
          <mxGeometry x="434.68" y="720" width="363.13" height="190" as="geometry" />
        </mxCell>
        <mxCell id="olI5NsrXjDAWR4fgo8TI-39" value="Discuss with MS Partnership Team" style="swimlane;labelBackgroundColor=#CCFFCC;" vertex="1" parent="1">
          <mxGeometry x="1070" y="560" width="250" height="140" as="geometry" />
        </mxCell>
        <mxCell id="olI5NsrXjDAWR4fgo8TI-44" value="&lt;div&gt;We might need to get some partnership folks&lt;/div&gt;&lt;div&gt;&amp;nbsp;who can initiate this&lt;/div&gt;&lt;div&gt; discussion with MS to &lt;br&gt;&lt;/div&gt;&lt;div&gt;understand if and how we can run &lt;br&gt;&lt;/div&gt;&lt;div&gt;Azure Stack on OCI&lt;/div&gt;" style="text;html=1;align=center;verticalAlign=middle;resizable=0;points=[];autosize=1;strokeColor=none;fillColor=none;labelBackgroundColor=#CCFFCC;" vertex="1" parent="olI5NsrXjDAWR4fgo8TI-39">
          <mxGeometry y="40" width="260" height="90" as="geometry" />
        </mxCell>
        <mxCell id="olI5NsrXjDAWR4fgo8TI-45" value="Discuss with OCI Product Engineering Team" style="swimlane;labelBackgroundColor=#CCFFCC;" vertex="1" parent="1">
          <mxGeometry x="1070" y="760" width="360" height="140" as="geometry" />
        </mxCell>
        <mxCell id="olI5NsrXjDAWR4fgo8TI-46" value="&lt;div&gt;We might also need to check with the OCI &lt;br&gt;product team to understand the feasiblity of bringing up a HCI l&lt;/div&gt;&lt;div&gt;ike the reference configuration &lt;br&gt;&lt;/div&gt;&lt;div&gt;provided by &lt;br&gt;&lt;/div&gt;Microsoft" style="text;html=1;align=center;verticalAlign=middle;resizable=0;points=[];autosize=1;strokeColor=none;fillColor=none;labelBackgroundColor=#CCFFCC;" vertex="1" parent="olI5NsrXjDAWR4fgo8TI-45">
          <mxGeometry x="10" y="40" width="360" height="90" as="geometry" />
        </mxCell>
        <mxCell id="olI5NsrXjDAWR4fgo8TI-47" value="Set up a call with APRIMO" style="swimlane;labelBackgroundColor=#CCFFCC;" vertex="1" parent="1">
          <mxGeometry x="450" y="980" width="395" height="140" as="geometry" />
        </mxCell>
        <mxCell id="olI5NsrXjDAWR4fgo8TI-48" value="&lt;div&gt;We need to check with Aprimo , and understand the solution architecture&lt;/div&gt;&lt;div&gt;&amp;nbsp;and evaluate options from our side &lt;/div&gt;" style="text;html=1;align=center;verticalAlign=middle;resizable=0;points=[];autosize=1;strokeColor=none;fillColor=none;labelBackgroundColor=#CCFFCC;" vertex="1" parent="olI5NsrXjDAWR4fgo8TI-47">
          <mxGeometry x="-15" y="65" width="410" height="40" as="geometry" />
        </mxCell>
        <mxCell id="olI5NsrXjDAWR4fgo8TI-49" value="END" style="ellipse;whiteSpace=wrap;html=1;rounded=0;" vertex="1" parent="1">
          <mxGeometry x="1168.75" y="260" width="120" height="60" as="geometry" />
        </mxCell>
        <mxCell id="olI5NsrXjDAWR4fgo8TI-51" value="End" style="ellipse;whiteSpace=wrap;html=1;rounded=0;" vertex="1" parent="1">
          <mxGeometry x="1521.5" y="405" width="120" height="60" as="geometry" />
        </mxCell>
      </root>
    </mxGraphModel>
  </diagram>
</mxfile>
